<svg xmlns="http://www.w3.org/2000/svg" width="200" height="200" viewBox="0 0 200 200"><defs><linearGradient id="bg" x1="0%" x2="100%" y1="0%" y2="100%"><stop offset="0%" style="stop-color:#25c2a0"/><stop offset="100%" style="stop-color:#2e8555"/></linearGradient><linearGradient id="screen" x1="0%" x2="0%" y1="0%" y2="100%"><stop offset="0%" style="stop-color:#e6fff7"/><stop offset="100%" style="stop-color:#b2f5ea"/></linearGradient></defs><circle cx="100" cy="100" r="96" fill="url(#bg)"/><line x1="100" x2="100" y1="30" y2="46" stroke="#fff" stroke-linecap="round" stroke-width="3"/><circle cx="100" cy="27" r="5" fill="#fff"/><rect width="76" height="58" x="62" y="46" fill="#fff" rx="16"/><circle cx="82" cy="72" r="10" fill="url(#bg)"/><circle cx="118" cy="72" r="10" fill="url(#bg)"/><circle cx="84" cy="70" r="3.5" fill="#fff"/><circle cx="120" cy="70" r="3.5" fill="#fff"/><path fill="none" stroke="url(#bg)" stroke-linecap="round" stroke-width="3" d="M85 88 Q100 98 115 88"/><rect width="64" height="50" x="68" y="110" fill="#fff" rx="12"/><text x="100" y="141" fill="url(#bg)" font-family="Arial,Helvetica,sans-serif" font-size="16" font-weight="bold" text-anchor="middle">SHAFT</text><rect width="18" height="36" x="44" y="114" fill="#fff" rx="9"/><rect width="18" height="36" x="138" y="114" fill="#fff" rx="9"/><rect width="18" height="14" x="76" y="160" fill="#fff" rx="6"/><rect width="18" height="14" x="106" y="160" fill="#fff" rx="6"/></svg>