<svg xmlns="http://www.w3.org/2000/svg" viewBox="0 0 200 200" width="200" height="200">
  <defs>
    <linearGradient id="bg" x1="0%" y1="0%" x2="100%" y2="100%">
      <stop offset="0%" style="stop-color:#25c2a0"/>
      <stop offset="100%" style="stop-color:#2e8555"/>
    </linearGradient>
    <linearGradient id="screen" x1="0%" y1="0%" x2="0%" y2="100%">
      <stop offset="0%" style="stop-color:#e6fff7"/>
      <stop offset="100%" style="stop-color:#b2f5ea"/>
    </linearGradient>
  </defs>
  <!-- Background circle -->
  <circle cx="100" cy="100" r="96" fill="url(#bg)"/>
  <!-- Antenna -->
  <line x1="100" y1="30" x2="100" y2="46" stroke="#fff" stroke-width="3" stroke-linecap="round"/>
  <circle cx="100" cy="27" r="5" fill="#fff"/>
  <!-- Head -->
  <rect x="62" y="46" width="76" height="58" rx="16" fill="#fff"/>
  <!-- Eyes -->
  <circle cx="82" cy="72" r="10" fill="url(#bg)"/>
  <circle cx="118" cy="72" r="10" fill="url(#bg)"/>
  <circle cx="84" cy="70" r="3.5" fill="#fff"/>
  <circle cx="120" cy="70" r="3.5" fill="#fff"/>
  <!-- Mouth / smile -->
  <path d="M85 88 Q100 98 115 88" fill="none" stroke="url(#bg)" stroke-width="3" stroke-linecap="round"/>
  <!-- Body -->
  <rect x="68" y="110" width="64" height="50" rx="12" fill="#fff"/>
  <!-- SHAFT logo area on chest -->
  <text x="100" y="141" text-anchor="middle" font-family="Arial,Helvetica,sans-serif" font-size="16" font-weight="bold" fill="url(#bg)">SHAFT</text>
  <!-- Arms -->
  <rect x="44" y="114" width="18" height="36" rx="9" fill="#fff"/>
  <rect x="138" y="114" width="18" height="36" rx="9" fill="#fff"/>
  <!-- Feet -->
  <rect x="76" y="160" width="18" height="14" rx="6" fill="#fff"/>
  <rect x="106" y="160" width="18" height="14" rx="6" fill="#fff"/>
</svg>
