<?xml version="1.0" standalone="no"?>
<!DOCTYPE svg PUBLIC "-//W3C//DTD SVG 20010904//EN"
 "http://www.w3.org/TR/2001/REC-SVG-20010904/DTD/svg10.dtd">
<svg version="1.0" xmlns="http://www.w3.org/2000/svg"
 width="71.000000pt" height="32.000000pt" viewBox="0 0 71.000000 32.000000"
 preserveAspectRatio="xMidYMid meet">

<g transform="translate(0.000000,32.000000) scale(0.100000,-0.100000)"
fill="#000000" stroke="none">
<path d="M72 268 c-7 -7 -12 -29 -12 -50 0 -34 4 -40 35 -55 28 -13 35 -23 35
-45 0 -15 -4 -28 -10 -28 -5 0 -10 14 -10 31 0 26 -3 30 -22 27 -20 -3 -23 -9
-23 -43 l0 -40 50 0 50 0 3 51 c3 49 1 52 -28 64 -21 9 -30 19 -30 36 0 13 5
24 10 24 6 0 10 -9 10 -20 0 -13 7 -20 20 -20 16 0 20 7 20 34 0 22 -6 36 -16
40 -26 10 -69 7 -82 -6z"/>
<path d="M197 274 c-4 -4 -7 -54 -7 -111 l0 -103 25 0 c23 0 25 3 25 51 0 31
4 48 10 44 6 -3 10 -26 10 -51 0 -37 3 -44 20 -44 19 0 20 7 20 110 0 103 -1
110 -20 110 -17 0 -20 -7 -20 -45 0 -57 -18 -59 -22 -3 -3 41 -22 60 -41 42z"/>
<path d="M345 268 c-2 -7 -6 -38 -9 -68 -4 -30 -9 -74 -12 -97 -6 -39 -4 -43
14 -43 12 0 23 9 27 20 8 26 25 26 25 0 0 -13 7 -20 20 -20 24 0 24 9 9 132
-12 88 -12 88 -41 88 -16 0 -30 -6 -33 -12z m32 -125 c-3 -10 -5 -4 -5 12 0
17 2 24 5 18 2 -7 2 -21 0 -30z"/>
<path d="M450 170 l0 -110 25 0 c23 0 25 3 25 50 0 28 5 50 10 50 6 0 10 7 10
15 0 8 -4 15 -10 15 -5 0 -10 11 -10 25 0 16 6 25 15 25 8 0 15 9 15 20 0 17
-7 20 -40 20 l-40 0 0 -110z"/>
<path d="M550 260 c0 -11 7 -20 15 -20 12 0 15 -17 15 -90 0 -83 1 -90 20 -90
19 0 20 7 20 90 0 73 3 90 15 90 8 0 15 9 15 20 0 17 -7 20 -50 20 -43 0 -50
-3 -50 -20z"/>
<path d="M103 43 c-12 -2 -24 -11 -27 -19 -4 -10 3 -14 24 -14 23 0 30 4 30
20 0 11 -1 19 -2 19 -2 -1 -13 -4 -25 -6z"/>
<path d="M143 35 c-3 -9 -3 -18 -1 -21 3 -3 8 4 11 16 6 23 -1 27 -10 5z"/>
<path d="M167 35 c-4 -8 -2 -17 3 -20 6 -4 10 3 10 14 0 25 -6 27 -13 6z"/>
<path d="M249 48 c-6 -21 -5 -38 1 -38 5 0 8 9 7 20 -1 17 -5 26 -8 18z"/>
<path d="M272 30 c0 -14 2 -19 5 -12 2 6 2 18 0 25 -3 6 -5 1 -5 -13z"/>
<path d="M312 30 c0 -14 2 -19 5 -12 2 6 2 18 0 25 -3 6 -5 1 -5 -13z"/>
<path d="M340 30 c-6 -11 -7 -20 -2 -20 6 0 12 9 15 20 3 11 3 20 1 20 -2 0
-8 -9 -14 -20z"/>
<path d="M370 29 c0 -14 7 -19 25 -19 35 0 35 34 0 36 -18 2 -25 -3 -25 -17z"/>
<path d="M432 30 c0 -14 2 -19 5 -12 2 6 2 18 0 25 -3 6 -5 1 -5 -13z"/>
<path d="M452 30 c0 -14 2 -19 5 -12 2 6 2 18 0 25 -3 6 -5 1 -5 -13z"/>
<path d="M477 44 c-15 -16 -6 -34 18 -34 16 0 25 6 25 15 0 18 -20 20 -21 3 0
-7 -4 -5 -8 5 -3 10 -10 15 -14 11z"/>
<path d="M560 30 c0 -17 6 -20 45 -20 36 0 45 3 45 18 0 12 -8 17 -29 17 -16
0 -27 -4 -24 -8 3 -5 -4 -4 -16 2 -18 10 -21 9 -21 -9z"/>
</g>
</svg>
